<?xml version="1.0" standalone="no"?>
<!DOCTYPE svg PUBLIC "-//W3C//DTD SVG 20010904//EN"
 "http://www.w3.org/TR/2001/REC-SVG-20010904/DTD/svg10.dtd">
<svg version="1.0" xmlns="http://www.w3.org/2000/svg"
 width="45" height="45" viewBox="0 0 512.000000 512.000000"
 preserveAspectRatio="xMidYMid meet">

<g transform="translate(0.000000,512.000000) scale(0.100000,-0.100000)"
fill="white" stroke="none">
<path d="M2524 5110 c-32 -13 -64 -59 -64 -91 0 -40 46 -88 91 -95 31 -5 42
-1 70 24 28 25 34 37 34 72 0 35 -6 47 -33 71 -33 29 -60 35 -98 19z"/>
<path d="M2525 4711 c-11 -5 -29 -19 -40 -31 -19 -21 -20 -40 -25 -342 l-5
-319 -775 -401 c-426 -220 -784 -408 -795 -419 -20 -19 -20 -36 -25 -1020 l-5
-1001 -208 -128 c-114 -70 -214 -133 -222 -140 -19 -15 -28 -63 -20 -101 8
-34 55 -69 95 -69 15 0 110 52 230 126 113 70 213 129 222 131 10 3 310 -183
785 -488 422 -271 780 -497 796 -503 19 -7 35 -7 55 0 15 6 373 232 795 503
475 305 775 491 785 488 9 -2 109 -61 222 -131 120 -74 215 -126 230 -126 40
0 87 35 95 69 8 38 -1 86 -20 101 -8 7 -108 70 -222 140 l-208 128 -5 1001
c-5 984 -5 1001 -25 1020 -11 11 -369 199 -795 419 l-775 401 -5 321 -5 322
-33 29 c-32 29 -60 35 -97 20z m-65 -1451 l0 -530 28 -30 c17 -19 40 -33 63
-36 31 -5 42 -1 70 24 l34 30 3 536 c1 295 5 536 8 536 10 0 1294 -665 1294
-670 0 -10 -1384 -834 -1400 -834 -16 0 -1400 824 -1400 834 0 5 1280 669
1293 670 4 0 7 -238 7 -530z m-678 -750 l677 -405 1 -907 c0 -500 -2 -908 -6
-908 -3 0 -297 187 -654 417 -557 357 -647 418 -632 428 9 6 222 137 472 290
250 153 465 289 478 302 34 37 30 96 -8 135 -54 53 -60 50 -574 -266 -256
-157 -467 -286 -470 -286 -3 0 -6 367 -6 816 l0 816 23 -14 c12 -7 327 -196
699 -418z m2274 -1198 c-3 -2 -214 125 -471 283 -515 317 -521 320 -575 267
-38 -39 -42 -98 -7 -135 12 -13 227 -149 477 -302 250 -153 463 -284 472 -290
15 -10 -75 -71 -632 -428 -357 -230 -652 -417 -655 -417 -3 0 -5 408 -5 908
l1 907 697 417 697 417 3 -811 c1 -446 0 -813 -2 -816z"/>
<path d="M64 730 c-32 -13 -64 -59 -64 -91 0 -40 46 -88 91 -95 31 -5 42 -1
70 24 28 25 34 37 34 72 0 35 -6 47 -33 71 -33 29 -60 35 -98 19z"/>
<path d="M4984 730 c-32 -13 -64 -59 -64 -91 0 -40 46 -88 91 -95 31 -5 42 -1
70 24 28 25 34 37 34 72 0 35 -6 47 -33 71 -33 29 -60 35 -98 19z"/>
</g>
</svg>
