<svg width="40" height="40" viewBox="0 0 40 40" fill="none" xmlns="http://www.w3.org/2000/svg">
<path opacity="0.944" fill-rule="evenodd" clip-rule="evenodd" d="M8.71094 10.9765C10.9009 10.7501 12.5805 11.5573 13.75 13.3984C14.8284 15.8161 14.3726 17.8864 12.3828 19.6094C15.8987 20.8076 18.0732 23.2164 18.9062 26.8359C19.1025 27.8107 18.7509 28.5008 17.8516 28.9062C12.3307 28.9583 6.8099 28.9583 1.28906 28.9062C0.539025 28.6565 0.1484 28.1358 0.117188 27.3437C0.811867 23.4981 2.99937 20.92 6.67969 19.6094C4.68897 17.8329 4.25928 15.7365 5.39062 13.3203C6.18126 12.0856 7.28803 11.3044 8.71094 10.9765ZM9.41406 12.2265C11.5739 12.3942 12.7718 13.553 13.0078 15.7031C12.9148 17.4108 12.0554 18.5305 10.4297 19.0625C7.90172 19.3733 6.44341 18.2665 6.05469 15.7422C6.27907 13.6991 7.39886 12.5272 9.41406 12.2265ZM8.71094 20.5078C12.3348 20.3725 15.0561 21.8569 16.875 24.9609C17.2269 25.7302 17.5003 26.5245 17.6953 27.3437C17.6432 27.5 17.5391 27.6041 17.3828 27.6562C12.1745 27.7083 6.96615 27.7083 1.75781 27.6562C1.54239 27.6164 1.43823 27.4862 1.44531 27.2656C2.0349 24.4198 3.64948 22.3886 6.28906 21.1719C7.08263 20.863 7.88992 20.6416 8.71094 20.5078Z" fill="#FE5E14"/>
<path opacity="0.928" fill-rule="evenodd" clip-rule="evenodd" d="M18.3984 10.9766C19.2237 10.9293 19.4971 11.2939 19.2188 12.0704C18.9453 12.2917 18.6719 12.5131 18.3984 12.7344C20.1432 12.7604 21.888 12.7865 23.6328 12.8125C24.2578 13.2292 24.2578 13.6459 23.6328 14.0625C21.888 14.0886 20.1432 14.1146 18.3984 14.1407C18.6719 14.362 18.9453 14.5834 19.2188 14.8047C19.4799 15.6631 19.1804 15.9886 18.3203 15.7813C17.5032 15.1466 16.7089 14.4825 15.9375 13.7891C15.7812 13.5547 15.7812 13.3204 15.9375 13.086C16.7498 12.3642 17.5701 11.6611 18.3984 10.9766Z" fill="#FE5E14"/>
<path opacity="0.944" fill-rule="evenodd" clip-rule="evenodd" d="M29.5703 10.9766C32.2921 10.7671 34.102 11.9389 35 14.4922C35.4567 16.5862 34.8446 18.2919 33.1641 19.6094C36.0761 20.5631 38.1204 22.4511 39.2969 25.2735C39.4895 25.8098 39.6458 26.3567 39.7656 26.9141C39.9425 27.9021 39.5649 28.5662 38.6328 28.9063C33.112 28.9584 27.5912 28.9584 22.0703 28.9063C21.3385 28.64 20.9739 28.1192 20.9766 27.3438C21.6271 23.4663 23.8146 20.8882 27.5391 19.6094C25.6035 17.9475 25.1217 15.9293 26.0938 13.5547C26.868 12.1675 28.0268 11.3081 29.5703 10.9766ZM30.2735 12.2266C31.906 12.3332 33.0388 13.1405 33.6719 14.6485C34.1064 16.5527 33.4684 17.9719 31.7578 18.9063C29.4775 19.5695 27.902 18.8013 27.0313 16.6016C26.7147 14.8 27.3527 13.4589 28.9453 12.5782C29.3818 12.3975 29.8245 12.2803 30.2735 12.2266ZM29.4922 20.5078C33.0259 20.3408 35.7212 21.7471 37.5781 24.7266C38.0849 25.6076 38.3584 26.5451 38.3985 27.5391C38.33 27.5978 38.2519 27.6368 38.1641 27.6563C35.5599 27.6693 32.9557 27.6823 30.3516 27.6953C27.6888 27.7078 25.0325 27.6688 22.3828 27.5782C22.3307 27.5 22.2787 27.4219 22.2266 27.3438C23.1517 23.4627 25.5735 21.184 29.4922 20.5078Z" fill="#FE5E14"/>
<path opacity="0.952" fill-rule="evenodd" clip-rule="evenodd" d="M21.1328 15.0391C21.2941 15.0537 21.4503 15.0927 21.6016 15.1562C22.308 15.7848 23.0372 16.3837 23.7891 16.9531C24.2057 17.3438 24.2057 17.7344 23.7891 18.125C23.0372 18.6945 22.308 19.2934 21.6016 19.9219C20.8131 20.1325 20.4876 19.833 20.625 19.0234C20.9023 18.7227 21.2018 18.4492 21.5234 18.2031C19.7526 18.1771 17.9818 18.151 16.2109 18.125C15.6901 17.7344 15.6901 17.3438 16.2109 16.9531C17.9818 16.9271 19.7526 16.901 21.5234 16.875C21.2018 16.6289 20.9023 16.3555 20.625 16.0547C20.4686 15.534 20.6379 15.1954 21.1328 15.0391Z" fill="#FE5E14"/>
</svg>
