<svg width="40" height="40" viewBox="0 0 40 40" fill="none" xmlns="http://www.w3.org/2000/svg">
<path d="M26.8359 0.820297C24.9531 1.3828 23.3672 2.23436 21.9453 3.45311C21.3672 3.96092 20.3047 5.14842 20.0312 5.61717C19.9531 5.74998 19.8594 5.85936 19.8281 5.85936C19.7969 5.85936 19.5547 5.70311 19.2812 5.51561C18.3125 4.84373 17.1016 4.33592 15.9375 4.11717C15.5703 4.04686 13.7812 3.78905 11.9687 3.54686C8.41406 3.0703 8.375 3.0703 8.1875 3.47655C8.11719 3.6328 8.17969 4.08592 8.50781 5.95311C8.73437 7.21092 8.98437 8.5078 9.07031 8.82811C9.57812 10.7812 10.5547 12.4297 12.0078 13.8359C13.8437 15.6015 15.9375 16.539 18.6484 16.8125C19.5859 16.9062 19.8984 16.8828 20.6797 16.6719C20.8359 16.6328 20.8594 16.6719 20.9766 17.2422C21.0469 17.5781 21.125 17.9062 21.1406 17.9765C21.1719 18.0859 21.0703 18.1094 20.5312 18.1562C17.8125 18.3828 15.5078 19.4687 13.625 21.4219C11.0781 24.0547 10.0859 27.7734 10.9766 31.3359C11.9844 35.3437 15.1016 38.289 19.2969 39.1875C20.2031 39.3828 22.2578 39.3828 23.2266 39.1953C27.0312 38.4375 30.125 35.7422 31.3203 32.1328C31.6719 31.0781 31.8125 30.2969 31.8516 29.1015C31.9141 27.25 31.6016 25.7656 30.7891 24.1015C29.7031 21.875 27.9922 20.1875 25.7812 19.1484C24.9141 18.7422 24.0312 18.4609 23.1484 18.3047L22.4375 18.1797L22.3125 17.5078C22.25 17.1406 22.125 16.6406 22.0469 16.4062L21.8984 15.9844L22.2266 15.5781C22.4062 15.3594 22.6172 15.039 22.7031 14.8672C22.8203 14.6172 22.9844 14.4687 23.4766 14.1719C24.5234 13.5234 25.5469 12.7109 26.375 11.8672C27.8906 10.2969 28.7422 8.6953 29.1562 6.62498C29.5391 4.67967 29.2812 1.32811 28.7031 0.79686C28.4375 0.562485 27.6875 0.570297 26.8359 0.820297ZM27.8828 2.16405C28.0391 2.76561 28.1484 4.11717 28.1016 4.92186C27.9141 8.09373 26.5547 10.4922 23.8437 12.4219L23.1641 12.9062L23.0703 12.0312C23.0156 11.5469 22.9375 11.0312 22.8906 10.8672C22.8203 10.6094 22.8437 10.5469 23.1016 10.1172C23.6562 9.21092 24.25 8.46873 25.125 7.58592L26.0156 6.6953L25.6172 6.24217L25.2187 5.78123L24.8516 6.08592C24.1406 6.68748 22.8359 8.16405 22.4531 8.8203L22.3125 9.05467L21.9375 8.42186C21.7344 8.0703 21.4141 7.59373 21.2266 7.36717C21.0469 7.1328 20.8672 6.89842 20.8281 6.84373C20.6562 6.59373 22.2969 4.71092 23.4297 3.86717C24.2891 3.22655 25.6797 2.5078 26.6797 2.18748C27.1094 2.05467 27.5 1.92967 27.5391 1.91405C27.7422 1.84373 27.8125 1.89842 27.8828 2.16405ZM16.1406 5.43748C18.3984 5.99998 20.3594 7.67186 21.2422 9.79686C21.6953 10.8906 21.8203 11.4844 21.8281 12.6953C21.8359 13.7578 21.8281 13.8047 21.6094 14.2578C21.4062 14.664 21.3672 14.7031 21.2969 14.5703C20.6172 13.414 19.6484 12.3047 18.6016 11.5156C17.9609 11.0312 16.1953 10.0781 15.9375 10.0781C15.8516 10.0781 15.75 10.2578 15.625 10.625C15.5234 10.9219 15.4531 11.1797 15.4687 11.1953C15.4922 11.2109 15.8516 11.3906 16.2656 11.5859C17.3125 12.0781 18.0703 12.6172 18.8828 13.4609C19.6875 14.2969 20.4062 15.3672 20.2266 15.4765C19.8437 15.7109 18.0469 15.5625 16.7578 15.1953C13.7734 14.3281 11.3984 12.0156 10.4297 9.03123C10.2812 8.56248 9.53125 4.8203 9.53125 4.53123C9.53125 4.46092 15.5234 5.28123 16.1406 5.43748ZM23.1172 19.5625C23.8828 19.7265 24.7656 20.039 25.4219 20.3672L25.9531 20.6328L25.1406 21.4687C23.8125 22.8281 23.75 23 23.75 25.3125C23.75 27.0234 23.8203 27.4687 24.1641 28.0469C24.25 28.1953 24.8594 28.8672 25.5156 29.5312C26.7578 30.7969 26.875 30.9765 26.875 31.6484C26.875 32.0078 27.0781 32.6953 27.2891 33.0469C27.375 33.1953 27.7109 33.5937 28.0312 33.9219L28.6094 34.5234L28.3672 34.8359C27.75 35.6094 26.4297 36.6328 25.3281 37.1797C24.7266 37.4844 23.6719 37.8281 22.9297 37.9765C22.3203 38.0937 20.5156 38.1172 19.8359 38.0234L19.3984 37.9609L19.3516 37.125C19.2969 36.0547 19.0078 34.9375 18.5547 34C18.1562 33.164 17.8906 32.7578 17.25 32.0234C16.7109 31.3984 16.6484 31.0703 17 30.789C17.1953 30.6328 17.3047 30.625 18.9844 30.625C20.9922 30.625 21.2578 30.5781 21.7578 30.0937C21.9297 29.9219 22.2109 29.4844 22.4297 29.0312C22.7656 28.3515 22.8125 28.1953 22.8125 27.7578C22.8125 27.4062 22.7656 27.164 22.6484 26.9297C22.4375 26.5156 20.8594 24.8984 20.3906 24.625L20.0391 24.414L17.5781 24.375L15.1172 24.3359L14.3984 23.8437C14 23.5781 13.6719 23.3359 13.6719 23.3047C13.6719 23.2031 14.3047 22.4453 14.7422 22.0156C16.0469 20.75 17.8828 19.8125 19.6094 19.5312C19.9297 19.4844 20.25 19.4297 20.3125 19.414C20.6016 19.3437 22.5937 19.4531 23.1172 19.5625ZM27.8437 22.125C29.6953 23.9844 30.5781 26.1094 30.5859 28.7109C30.5859 30.3359 30.3672 31.3515 29.6797 32.8125L29.3672 33.4765L28.8359 32.9297C28.2812 32.3594 28.125 32.0469 28.125 31.4765C28.125 31.1172 27.9219 30.4297 27.7109 30.0781C27.625 29.9297 27.0156 29.2578 26.3594 28.5937C25.4297 27.6406 25.1562 27.3125 25.0859 27.0703C24.9766 26.664 24.9766 23.9609 25.0859 23.5547C25.1562 23.3125 25.3828 23.0234 26.0781 22.3203C26.5781 21.8203 27.0156 21.4062 27.0547 21.4062C27.0937 21.4062 27.4453 21.7344 27.8437 22.125ZM13.7578 24.9297C14.8125 25.6406 14.75 25.625 17.4062 25.625H19.7109L20.6406 26.539C21.4531 27.3437 21.5625 27.4844 21.5625 27.7109C21.5625 28.0312 21 29.1797 20.7891 29.2969C20.6953 29.3437 19.9453 29.375 18.8828 29.375C16.9922 29.375 16.7109 29.4219 16.2031 29.8047C15.8359 30.0859 15.5469 30.7187 15.5469 31.2422C15.5547 31.8047 15.7344 32.2031 16.25 32.7734C17.3281 33.9609 17.9687 35.4219 18.0937 36.9765L18.1484 37.5859L17.7266 37.4219C14.9141 36.3203 12.7734 33.7578 12.0547 30.6094C11.8906 29.8984 11.8672 27.7656 12.0234 27.0703C12.2578 25.9531 12.8125 24.4531 12.9844 24.4531C13.0234 24.4531 13.3672 24.664 13.7578 24.9297Z" fill="#FE5E14"/>
</svg>
