<svg width="40" height="40" viewBox="0 0 40 40" fill="none" xmlns="http://www.w3.org/2000/svg">
<g clip-path="url(#clip0_20_341)">
<path d="M19.0352 0.29999C18.7136 0.45999 17.9095 1.07999 17.2261 1.69999C16.5628 2.31999 15.799 2.85999 15.5377 2.91999C15.2764 2.99999 14.4322 2.89999 13.6482 2.71999C12.8643 2.53999 11.7588 2.39999 11.2161 2.39999C9.78894 2.39999 9.06533 3.15999 8.34171 5.39999C8.0603 6.33999 7.61809 7.29999 7.39698 7.53999C7.15578 7.79999 6.25126 8.21999 5.26633 8.51999C2.41206 9.37999 1.92965 10.34 2.73367 13.5C2.91457 14.22 3.01508 15 2.93467 15.28C2.87437 15.54 2.27136 16.36 1.60804 17.1C0.261307 18.56 0 19.06 0 20.16C0 21.02 0.261307 21.44 1.74874 23.06C2.33166 23.7 2.85427 24.42 2.93467 24.68C2.99497 24.92 2.89447 25.76 2.71357 26.52C1.92965 29.9 2.33166 30.64 5.56784 31.62C7.21608 32.14 7.69849 32.62 8.22111 34.26C9.24623 37.58 10.1106 38.08 13.6482 37.28C14.4322 37.1 15.2764 37.02 15.5176 37.08C15.7789 37.14 16.6633 37.78 17.4874 38.5C19.7588 40.5 20.4623 40.5 22.6734 38.52C23.4573 37.82 24.2814 37.18 24.5025 37.1C24.7236 37.04 25.7688 37.16 26.794 37.38C29.7688 38.02 30.5126 37.64 31.3769 35.04C31.6181 34.3 31.9397 33.46 32.1005 33.16C32.402 32.56 33.4472 31.94 34.5729 31.7C35.598 31.48 36.6834 30.88 37.1658 30.28C37.6683 29.64 37.7085 28.28 37.2864 26.5C36.8442 24.72 36.8844 24.54 38.0503 23.18C39.7387 21.2 40 20.78 40 19.98C40 19.22 39.9598 19.14 37.8492 16.6C36.9045 15.46 36.8643 15.24 37.2864 13.5C37.4472 12.84 37.5678 11.82 37.5879 11.22C37.5879 9.71999 36.8844 9.03999 34.5126 8.29999C32.4221 7.63999 32.201 7.39999 31.4372 5.13999C30.5126 2.39999 29.6482 1.95999 26.4925 2.71999C25.7487 2.89999 24.9246 2.99999 24.6432 2.91999C24.3417 2.83999 23.5176 2.23999 22.7739 1.57999C20.9447 -0.0600102 20.2211 -0.32001 19.0352 0.29999ZM22.1709 2.57999C23.0754 3.37999 23.9598 3.99999 24.3417 4.07999C24.6834 4.13999 25.7889 4.01999 26.8744 3.77999C28.7638 3.37999 28.804 3.37999 29.3065 3.73999C29.6683 3.99999 29.9899 4.63999 30.3518 5.71999C30.6332 6.57999 31.0352 7.53999 31.2362 7.83999C31.6181 8.41999 32.7035 8.97999 34.392 9.47999C36.5427 10.08 36.7437 10.54 36.0804 13.5C35.6181 15.54 35.799 16.14 37.4874 18C39.1759 19.88 39.1759 20.1 37.4874 22.02C35.8191 23.9 35.6181 24.5 36.0603 26.4C36.2412 27.2 36.3819 28.24 36.3819 28.72C36.3819 29.8 36.0804 30.04 33.8291 30.72C31.6382 31.38 31.1357 31.88 30.4724 34.02C29.6281 36.68 29.4874 36.76 26.8744 36.18C24.4824 35.66 23.9799 35.8 22.0704 37.5C20.2211 39.16 19.9397 39.18 18.2513 37.68C16.201 35.9 15.5779 35.7 13.0854 36.18C11.5578 36.48 10.6332 36.46 10.2312 36.08C10.0302 35.9 9.62814 35.02 9.32663 34.12C8.48241 31.56 8.1608 31.24 5.64824 30.42C3.27638 29.64 3.09548 29.32 3.71859 27C4.34171 24.72 3.9598 23.54 2.03015 21.72C0.603015 20.34 0.723618 19.32 2.51256 17.6C4.0804 16.08 4.32161 15.22 3.71859 13C3.31658 11.52 3.33668 10.74 3.77889 10.34C3.9799 10.16 4.94472 9.73999 5.92965 9.41999C6.93467 9.07999 7.9196 8.59999 8.201 8.33999C8.48241 8.05999 8.96482 7.03999 9.32663 5.97999C9.78894 4.61999 10.0905 4.01999 10.5126 3.71999C11.0553 3.31999 11.0955 3.31999 12.7236 3.65999C15.598 4.25999 16.1206 4.13999 17.8291 2.57999C19.8191 0.75999 20.1407 0.75999 22.1709 2.57999Z" fill="#FE5E14"/>
<path d="M16.7839 8.78001C9.60806 10.84 6.09047 18.7 9.36685 25.4C10.392 27.48 12.6231 29.68 14.7538 30.7C18.593 32.54 22.9347 32.28 26.4724 29.98C28.7839 28.46 30.3317 26.46 31.2764 23.66C31.8392 21.98 31.9397 19 31.4774 17.26C30.3317 13.02 27.1156 9.82001 22.8543 8.68001C21.4071 8.30001 18.2714 8.34001 16.7839 8.78001ZM22.0704 9.72001C27.8593 10.9 31.6784 16.56 30.4724 22.2C29.4473 27.04 25.5679 30.4 20.603 30.74C17.5076 30.94 14.7538 29.88 12.4623 27.6C5.74876 20.94 10.2915 9.76001 19.8593 9.42001C20.2211 9.42001 21.2261 9.54001 22.0704 9.72001Z" fill="#FE5E14"/>
<path d="M24.8241 14.16C24.5025 14.36 22.8744 15.94 21.206 17.66C19.5578 19.4 18.1106 20.8 17.99 20.8C17.8895 20.8 17.1256 20.16 16.3216 19.4C14.9749 18.12 14.7739 18 13.99 18C12.4824 18 11.5176 19.26 12 20.58C12.2412 21.2 17.4874 26.4 17.8895 26.4C18.3317 26.4 27.9397 16.78 27.9598 16.3C28.0201 15.3 27.8794 14.86 27.3166 14.34C26.6131 13.7 25.7085 13.62 24.8241 14.16ZM26.7337 15.3C26.8543 15.46 26.9146 15.74 26.8543 15.94C26.794 16.14 24.7437 18.28 22.3116 20.7L17.8895 25.1L15.4774 22.7C14.1508 21.38 13.0653 20.16 13.0653 19.96C13.0653 19.54 13.5879 19 14.0101 19C14.1709 19 15.0553 19.76 15.9799 20.7C16.8844 21.64 17.7487 22.4 17.9096 22.4C18.0503 22.4 19.8191 20.74 21.8492 18.7C25.608 14.92 26.1106 14.56 26.7337 15.3Z" fill="#FE5E14"/>
</g>
<defs>
<clipPath id="clip0_20_341">
<rect width="40" height="40" fill="white"/>
</clipPath>
</defs>
</svg>
