<svg width="40" height="40" viewBox="0 0 40 40" fill="none" xmlns="http://www.w3.org/2000/svg">
<g clip-path="url(#clip0_7_93)">
<path d="M9.7008 0.503955C8.53545 1.13388 8.18899 1.85829 8.18899 3.71655V5.29136L5.03939 5.41734C2.11025 5.51183 1.85828 5.57482 1.03938 6.39372L0.157495 7.24411L0.0630064 14.9606C-0.0314818 22.3622 1.4295e-05 22.6772 0.629936 23.3071C1.22836 23.9055 1.60631 23.937 9.41734 23.937H17.5748L17.7953 25.2599C18.6457 30.2992 22.3307 35.9055 26.8347 38.8662C28.8819 40.252 28.8504 40.252 32.0315 37.7323C35.2441 35.1811 37.7008 31.5276 38.9921 27.4016C39.7166 25.0079 40.2205 20.6299 39.7795 20.378C39.6221 20.2835 38.4882 20.0315 37.2914 19.8425C34.6772 19.4331 31.6536 17.9843 30.2047 16.504C29.6378 15.9055 28.9134 15.4331 28.6299 15.4331C28.1575 15.4331 28.063 14.9606 27.9685 11.3386C27.874 7.37009 27.8425 7.24411 26.9921 6.39372C26.1732 5.57482 25.9213 5.51183 22.9921 5.41734L19.8425 5.29136V3.74805C19.8425 1.88978 19.2126 0.818916 17.8898 0.346475C16.4095 -0.188958 10.7402 -0.0629742 9.7008 0.503955ZM17.8898 1.7638C18.4567 2.14175 18.5827 2.5512 18.5827 3.81104C18.5827 5.13388 18.4882 5.35435 17.9528 5.35435C17.4173 5.35435 17.3229 5.13388 17.3229 4.09451V2.83466H14.0158H10.7087V4.09451C10.7087 5.13388 10.6142 5.35435 10.0788 5.35435C9.54332 5.35435 9.44883 5.13388 9.44883 3.81104C9.44883 1.57482 9.98427 1.25986 14.0158 1.25986C16.378 1.25986 17.3543 1.38584 17.8898 1.7638ZM16.063 4.72443C16.063 5.29136 15.8425 5.35435 14.0158 5.35435C12.189 5.35435 11.9685 5.29136 11.9685 4.72443C11.9685 4.1575 12.189 4.09451 14.0158 4.09451C15.8425 4.09451 16.063 4.1575 16.063 4.72443ZM26.1103 7.43309C26.4882 7.90553 26.7717 8.53545 26.7717 8.85041C26.7717 9.41734 26.2677 9.44883 14.0158 9.44883H1.25986V8.72443C1.25986 8.31498 1.54332 7.68506 1.88978 7.3071C2.5512 6.61419 2.61419 6.61419 14.0158 6.61419H25.4803L26.1103 7.43309ZM26.7717 13.8583V17.0079L25.2914 17.9528C23.748 18.9291 21.8268 19.5591 19.0551 20.0315C17.5118 20.315 17.4803 20.3465 17.3858 21.5118L17.2914 22.6772L9.35435 22.6142L1.41734 22.5197L1.32285 16.5984L1.25986 10.7087H14.0158H26.7717V13.8583ZM29.1654 17.3543C29.2599 17.5433 30.2047 18.2362 31.2126 18.8977C32.8189 19.937 34.7087 20.5984 37.8898 21.2599C38.8977 21.4488 38.9292 21.7638 38.2362 25.1339C37.4803 28.9764 35.5906 32.4725 32.7559 35.2756C29.7953 38.2362 28.9764 38.7087 27.811 38.0788C26.4252 37.3858 22.6142 33.3858 21.4803 31.4646C20.9134 30.5197 20.189 28.9449 19.8425 27.9685C19.1496 26.0158 18.3937 21.8268 18.6772 21.5433C18.7717 21.4488 19.811 21.1654 20.9764 20.9134C23.4961 20.4095 25.8268 19.3071 27.4016 17.9843C28.6299 16.9134 28.8504 16.8504 29.1654 17.3543Z" fill="#FE5E14"/>
<path d="M12.189 12.1575C12.063 12.2835 11.9685 12.9449 11.9685 13.6063C11.9685 14.8032 11.9685 14.8032 10.7087 14.8032H9.44882V16.6929V18.5827H10.6772C11.937 18.5827 11.937 18.5827 12.0315 19.9055L12.126 21.2598L13.6378 21.3543C15.4961 21.4803 16.063 21.0709 16.063 19.6535C16.063 18.6142 16.0945 18.5827 17.3228 18.5827H18.5827V16.6929V14.8032H17.3543C16.0945 14.8032 16.0945 14.8032 16 13.4488L15.9055 12.126L14.1732 12.0315C13.1969 11.9685 12.315 12.0315 12.189 12.1575ZM14.8661 14.5512C14.9606 15.874 14.9921 15.9055 16.1575 16C17.0394 16.063 17.3228 16.252 17.3228 16.6929C17.3228 17.1339 17.0394 17.3228 16.1575 17.3858C15.0236 17.4803 14.9606 17.5433 14.8032 18.7402C14.6772 19.748 14.4882 20.0315 13.9528 20.0945C13.3543 20.189 13.2598 20.0315 13.1654 18.8347C13.0709 17.5118 13.0394 17.4803 11.9055 17.3858C10.9921 17.3228 10.7087 17.1339 10.7087 16.6929C10.7087 16.252 10.9921 16.063 11.9055 16C13.0394 15.9055 13.0709 15.874 13.1654 14.5512C13.2598 13.3858 13.3543 13.2284 14.0158 13.2284C14.6772 13.2284 14.7717 13.3858 14.8661 14.5512Z" fill="#FE5E14"/>
<path d="M23.622 23.3701C23.0236 23.7795 22.4252 24.5039 22.2677 24.9764C21.6693 26.7716 22.2047 27.7165 25.5118 31.0236L28.6929 34.1732L31.9685 30.8346C34.7717 28 35.2756 27.3386 35.2756 26.4882C35.2756 24.4409 33.6378 22.6772 31.7165 22.6772C31.3071 22.6772 30.4252 23.0236 29.7953 23.4646L28.6614 24.2205L27.5276 23.4646C26.0787 22.4882 24.9764 22.4567 23.622 23.3701ZM27.1811 24.8819C27.7795 25.3858 28.4409 25.8268 28.6614 25.8268C28.8819 25.8268 29.5433 25.3858 30.1417 24.8819C31.4016 23.748 32.2835 23.685 33.2913 24.6299C34.6142 25.8898 34.2992 26.7716 31.3701 29.7008L28.7559 32.3779L26.0157 29.6378C23.0866 26.6772 22.7717 25.9527 24 24.6614C24.9134 23.685 25.9213 23.748 27.1811 24.8819Z" fill="#FE5E14"/>
</g>
<defs>
<clipPath id="clip0_7_93">
<rect width="40" height="40" fill="white"/>
</clipPath>
</defs>
</svg>
