<svg width="40" height="40" viewBox="0 0 40 40" fill="none" xmlns="http://www.w3.org/2000/svg">
<g clip-path="url(#clip0_29_507)">
<path opacity="0.915" fill-rule="evenodd" clip-rule="evenodd" d="M19.6484 -0.0390625C19.8568 -0.0390625 20.0651 -0.0390625 20.2734 -0.0390625C20.3778 0.0789273 20.469 0.209136 20.5469 0.351562C20.599 1.13281 20.599 1.91406 20.5469 2.69531C20.3566 3.06436 20.0571 3.18155 19.6484 3.04688C19.5274 2.95203 19.4363 2.83484 19.375 2.69531C19.3229 1.91406 19.3229 1.13281 19.375 0.351562C19.4529 0.209136 19.5441 0.0789273 19.6484 -0.0390625Z" fill="#FE5E14"/>
<path opacity="0.934" fill-rule="evenodd" clip-rule="evenodd" d="M21.6016 39.9609C20.5078 39.9609 19.4141 39.9609 18.3203 39.9609C17.9118 39.8 17.6123 39.5136 17.4219 39.1016C17.3159 38.5082 17.2769 37.9092 17.3047 37.3047C16.5183 37.3355 15.737 37.2965 14.9609 37.1875C14.5313 37.0182 14.2318 36.7188 14.0625 36.2891C13.8541 35.4801 13.9192 34.6988 14.2578 33.9453C14.1293 33.7559 14.0382 33.5475 13.9844 33.3203C13.9323 32.8516 13.9323 32.3828 13.9844 31.9141C14.0935 31.3621 14.406 30.9715 14.9219 30.7422C14.9945 29.618 14.9685 28.4983 14.8438 27.3828C14.6703 26.8671 14.3709 26.4374 13.9453 26.0938C9.87203 23.4553 7.95797 19.6923 8.20313 14.8047C8.72446 10.647 10.7948 7.53498 14.4141 5.46875C15.7178 4.79546 17.098 4.36577 18.5547 4.17969C19.1145 4.25864 19.3098 4.57114 19.1406 5.11719C19.0755 5.18229 19.0104 5.2474 18.9453 5.3125C14.8153 5.98113 11.8856 8.20773 10.1563 11.9922C8.69813 16.1351 9.40125 19.8591 12.2656 23.1641C13.0448 23.9175 13.8911 24.5816 14.8047 25.1562C15.553 25.7803 16.0088 26.5746 16.1719 27.5391C16.2109 28.5544 16.224 29.57 16.2109 30.5859C18.7109 30.5859 21.2109 30.5859 23.7109 30.5859C23.6979 29.57 23.7109 28.5544 23.75 27.5391C23.9131 26.5746 24.3688 25.7803 25.1172 25.1562C28.1952 23.2625 30.018 20.5151 30.5859 16.9141C30.9959 16.5777 31.3475 16.6298 31.6406 17.0703C31.3934 19.923 30.2606 22.3578 28.2422 24.375C27.3651 25.1193 26.4666 25.8355 25.5469 26.5234C25.3708 26.7974 25.2145 27.0838 25.0781 27.3828C24.9534 28.4983 24.9273 29.618 25 30.7422C25.5159 30.9715 25.8284 31.3621 25.9375 31.9141C25.9896 32.3828 25.9896 32.8516 25.9375 33.3203C25.8837 33.5475 25.7926 33.7559 25.6641 33.9453C26.0027 34.6988 26.0677 35.4801 25.8594 36.2891C25.6901 36.7188 25.3906 37.0182 24.9609 37.1875C24.1848 37.2965 23.4036 37.3355 22.6172 37.3047C22.645 37.9092 22.6059 38.5082 22.5 39.1016C22.3096 39.5136 22.0101 39.8 21.6016 39.9609ZM15.5078 31.8359C18.4766 31.8229 21.4454 31.8359 24.4141 31.875C24.5259 31.9113 24.617 31.9765 24.6875 32.0703C24.7396 32.4088 24.7396 32.7474 24.6875 33.0859C24.6583 33.1575 24.6192 33.2227 24.5703 33.2812C21.4974 33.3334 18.4245 33.3334 15.3516 33.2812C15.3027 33.2227 15.2636 33.1575 15.2344 33.0859C15.1823 32.7474 15.1823 32.4088 15.2344 32.0703C15.3238 31.9816 15.415 31.9034 15.5078 31.8359ZM15.4297 34.5703C18.4506 34.5573 21.4715 34.5703 24.4922 34.6094C24.5834 34.6484 24.6484 34.7135 24.6875 34.8047C24.7396 35.1432 24.7396 35.4818 24.6875 35.8203C24.6484 35.9115 24.5834 35.9766 24.4922 36.0156C21.4713 36.0677 18.4505 36.0677 15.4297 36.0156C15.3385 35.9766 15.2734 35.9115 15.2344 35.8203C15.1823 35.4818 15.1823 35.1432 15.2344 34.8047C15.2889 34.7116 15.354 34.6335 15.4297 34.5703ZM18.5547 37.3047C19.4922 37.3047 20.4297 37.3047 21.3672 37.3047C21.3897 37.7523 21.3636 38.195 21.2891 38.6328C21.248 38.6869 21.1959 38.7259 21.1328 38.75C20.3516 38.8021 19.5703 38.8021 18.7891 38.75C18.7259 38.7259 18.6738 38.6869 18.6328 38.6328C18.5583 38.195 18.5322 37.7523 18.5547 37.3047Z" fill="#FE5E14"/>
<path opacity="0.921" fill-rule="evenodd" clip-rule="evenodd" d="M21.1328 4.17969C25.7753 4.79945 29.0435 7.24737 30.9375 11.5234C31.3833 12.6028 31.6177 13.7226 31.6406 14.8828C31.3047 15.2692 30.9401 15.2952 30.5469 14.9609C29.6059 9.51477 26.4158 6.29861 20.9766 5.3125C20.6292 4.87477 20.6813 4.49717 21.1328 4.17969Z" fill="#FE5E14"/>
<path opacity="0.898" fill-rule="evenodd" clip-rule="evenodd" d="M8.94531 4.41406C9.10656 4.42867 9.26281 4.46773 9.41406 4.53125C9.92188 5.03906 10.4297 5.54688 10.9375 6.05469C11.1827 6.60585 11.0135 6.94439 10.4297 7.07031C10.2648 7.027 10.1086 6.9619 9.96094 6.875C9.50524 6.41927 9.04946 5.96354 8.59375 5.50781C8.32524 5.01947 8.44242 4.65488 8.94531 4.41406Z" fill="#FE5E14"/>
<path opacity="0.898" fill-rule="evenodd" clip-rule="evenodd" d="M30.7422 4.41406C31.4443 4.51961 31.6396 4.8842 31.3281 5.50781C30.8724 5.96354 30.4166 6.41927 29.9609 6.875C29.6901 7.0927 29.4036 7.11873 29.1016 6.95312C28.8462 6.68335 28.8071 6.38387 28.9844 6.05469C29.5405 5.45893 30.1264 4.91205 30.7422 4.41406Z" fill="#FE5E14"/>
<path opacity="0.932" fill-rule="evenodd" clip-rule="evenodd" d="M18.7109 7.3828C19.5447 7.3698 20.378 7.38282 21.2109 7.42187C21.4551 7.49838 21.6504 7.64161 21.7969 7.85155C21.811 8.57374 21.8501 9.28991 21.9141 9.99999C22.2037 10.1095 22.4901 10.2267 22.7734 10.3516C23.1759 9.98812 23.5666 9.61054 23.9453 9.21874C24.3413 8.88382 24.758 8.83171 25.1953 9.06249C25.7552 9.62241 26.3151 10.1823 26.875 10.7422C26.9925 11.0187 27.0185 11.3051 26.9531 11.6016C26.539 12.0939 26.0962 12.5626 25.625 13.0078C25.6436 13.3342 25.7348 13.6467 25.8984 13.9453C26.5218 14.0103 27.1468 14.0494 27.7734 14.0625C28.2031 14.1276 28.4505 14.375 28.5156 14.8047C28.5677 15.5859 28.5677 16.3672 28.5156 17.1484C28.4634 17.4609 28.2941 17.6822 28.0078 17.8125C27.3051 17.8516 26.602 17.8645 25.8984 17.8516C25.8491 18.1688 25.7449 18.4683 25.5859 18.75C26.0699 19.26 26.5256 19.7938 26.9531 20.3516C27.0371 20.692 26.985 21.0045 26.7969 21.2891C26.2891 21.7969 25.7812 22.3047 25.2734 22.8125C24.8828 23.0729 24.4922 23.0729 24.1016 22.8125C23.6719 22.3828 23.2422 21.9531 22.8125 21.5234C22.5596 21.6859 22.2862 21.8031 21.9922 21.875C21.8719 22.6308 21.7807 23.399 21.7187 24.1797C21.5473 24.3891 21.326 24.5063 21.0547 24.5312C20.3255 24.5834 19.5963 24.5834 18.8672 24.5312C18.5958 24.5063 18.3745 24.3891 18.2031 24.1797C18.1412 23.399 18.05 22.6308 17.9297 21.875C17.6357 21.8031 17.3623 21.6859 17.1094 21.5234C16.6797 21.9531 16.25 22.3828 15.8203 22.8125C15.4297 23.0729 15.0391 23.0729 14.6484 22.8125C14.0601 22.2502 13.5001 21.6643 12.9687 21.0547C12.9166 20.8203 12.9166 20.5859 12.9687 20.3516C13.3962 19.7938 13.8519 19.26 14.3359 18.75C14.1769 18.4683 14.0728 18.1688 14.0234 17.8516C13.3198 17.8645 12.6167 17.8516 11.9141 17.8125C11.6277 17.6822 11.4584 17.4609 11.4062 17.1484C11.3541 16.3672 11.3541 15.5859 11.4062 14.8047C11.4713 14.375 11.7187 14.1276 12.1484 14.0625C12.7751 14.0494 13.4001 14.0103 14.0234 13.9453C14.1871 13.6467 14.2783 13.3342 14.2969 13.0078C13.8802 12.5912 13.4635 12.1744 13.0469 11.7578C12.9294 11.4813 12.9033 11.1949 12.9687 10.8984C13.5262 10.2628 14.1121 9.65077 14.7266 9.06249C15.1638 8.83171 15.5805 8.88382 15.9766 9.21874C16.3553 9.61054 16.7459 9.98812 17.1484 10.3516C17.4317 10.2267 17.7182 10.1095 18.0078 9.99999C18.0718 9.28991 18.1108 8.57374 18.125 7.85155C18.2898 7.64673 18.4851 7.49048 18.7109 7.3828ZM19.2578 8.6328C19.7266 8.6328 20.1953 8.6328 20.6641 8.6328C20.6511 9.3364 20.6641 10.0395 20.7031 10.7422C20.7394 10.854 20.8046 10.9451 20.8984 11.0156C21.5028 11.1737 22.0757 11.408 22.6172 11.7187C22.8255 11.7709 23.0338 11.7709 23.2422 11.7187C23.7476 11.2916 24.2294 10.8359 24.6875 10.3516C24.9869 10.651 25.2865 10.9505 25.5859 11.25C25.1562 11.6797 24.7266 12.1094 24.2969 12.5391C24.21 12.6867 24.1448 12.843 24.1016 13.0078C24.4401 13.6587 24.7135 14.3359 24.9219 15.0391C24.9924 15.1329 25.0835 15.198 25.1953 15.2344C25.898 15.2734 26.6011 15.2864 27.3047 15.2734C27.3047 15.7162 27.3047 16.1588 27.3047 16.6016C26.5691 16.569 25.84 16.608 25.1172 16.7187C24.9962 16.8136 24.9051 16.9308 24.8437 17.0703C24.6705 17.7156 24.4232 18.3276 24.1016 18.9062C24.1406 19.0234 24.1797 19.1406 24.2187 19.2578C24.6459 19.7632 25.1016 20.245 25.5859 20.7031C25.2865 21.0026 24.9869 21.3021 24.6875 21.6016C24.2318 21.1459 23.776 20.6901 23.3203 20.2344C23.1924 20.1874 23.0623 20.1484 22.9297 20.1172C22.2618 20.412 21.5848 20.6855 20.8984 20.9375C20.8333 21.0026 20.7682 21.0677 20.7031 21.1328C20.6641 21.8615 20.6511 22.5907 20.6641 23.3203C20.1953 23.3203 19.7266 23.3203 19.2578 23.3203C19.2708 22.5907 19.2578 21.8615 19.2187 21.1328C19.1537 21.0677 19.0885 21.0026 19.0234 20.9375C18.3371 20.6855 17.6601 20.412 16.9922 20.1172C16.8596 20.1484 16.7294 20.1874 16.6016 20.2344C16.1458 20.6901 15.6901 21.1459 15.2344 21.6016C14.9349 21.3021 14.6354 21.0026 14.3359 20.7031C14.8202 20.245 15.2759 19.7632 15.7031 19.2578C15.8594 19.0234 15.8594 18.7891 15.7031 18.5547C15.4193 18.0944 15.2109 17.5996 15.0781 17.0703C15.0168 16.9308 14.9257 16.8136 14.8047 16.7187C14.0819 16.608 13.3527 16.569 12.6172 16.6016C12.6172 16.1588 12.6172 15.7162 12.6172 15.2734C13.3208 15.2864 14.0239 15.2734 14.7266 15.2344C14.8958 15.1693 15.013 15.0521 15.0781 14.8828C15.2604 14.2319 15.5077 13.6069 15.8203 13.0078C15.777 12.843 15.7119 12.6867 15.625 12.5391C15.1953 12.1094 14.7656 11.6797 14.3359 11.25C14.6354 10.9505 14.9349 10.651 15.2344 10.3516C15.6925 10.8359 16.1743 11.2916 16.6797 11.7187C16.888 11.7709 17.0963 11.7709 17.3047 11.7187C17.8462 11.408 18.4191 11.1737 19.0234 11.0156C19.1173 10.9451 19.1824 10.854 19.2187 10.7422C19.2578 10.0395 19.2708 9.3364 19.2578 8.6328ZM19.6484 14.0234C20.9405 14.0264 21.6956 14.6644 21.9141 15.9375C21.7051 17.3314 20.8977 17.9564 19.4922 17.8125C18.1005 17.2316 17.7229 16.255 18.3594 14.8828C18.6987 14.4472 19.1284 14.1607 19.6484 14.0234Z" fill="#FE5E14"/>
<path opacity="0.928" fill-rule="evenodd" clip-rule="evenodd" d="M19.6484 12.7734C21.7402 12.834 22.912 13.9017 23.1641 15.9766C23.1132 17.0813 22.6445 17.9537 21.7578 18.5938C20.4034 19.3345 19.1013 19.2563 17.8516 18.3594C16.6152 17.0227 16.472 15.5773 17.4219 14.0234C18.0169 13.3291 18.7591 12.9125 19.6484 12.7734ZM19.6484 14.0234C19.1284 14.1607 18.6987 14.4472 18.3594 14.8828C17.7229 16.255 18.1005 17.2316 19.4922 17.8125C20.8977 17.9564 21.7051 17.3314 21.9141 15.9375C21.6956 14.6645 20.9405 14.0264 19.6484 14.0234Z" fill="#FE5E14"/>
<path opacity="0.913" fill-rule="evenodd" clip-rule="evenodd" d="M4.25782 15.3516C5.09156 15.3385 5.92489 15.3516 6.75782 15.3906C7.08772 15.6246 7.17887 15.9242 7.03126 16.2891C6.92822 16.4443 6.78498 16.5355 6.60157 16.5625C5.8724 16.6146 5.14323 16.6146 4.41407 16.5625C3.99176 16.4078 3.84853 16.1083 3.98438 15.6641C4.09185 15.5699 4.183 15.4658 4.25782 15.3516Z" fill="#FE5E14"/>
<path opacity="0.912" fill-rule="evenodd" clip-rule="evenodd" d="M33.1641 15.3516C33.9978 15.3385 34.8312 15.3516 35.6641 15.3906C36.0505 15.7266 36.0765 16.0912 35.7422 16.4844C34.9407 16.6088 34.1334 16.6349 33.3203 16.5625C32.9987 16.4753 32.8165 16.267 32.7734 15.9375C32.8378 15.6896 32.968 15.4943 33.1641 15.3516Z" fill="#FE5E14"/>
<path opacity="0.899" fill-rule="evenodd" clip-rule="evenodd" d="M10.1953 24.8828C10.8325 24.8298 11.1059 25.1162 11.0156 25.7422C10.5363 26.2997 10.0285 26.8335 9.49218 27.3437C8.67523 27.6195 8.34968 27.3461 8.51562 26.5234C9.06734 25.9586 9.62726 25.4117 10.1953 24.8828Z" fill="#FE5E14"/>
<path opacity="0.899" fill-rule="evenodd" clip-rule="evenodd" d="M29.1797 24.8828C29.4257 24.8602 29.6601 24.8993 29.8828 25C30.3906 25.5078 30.8984 26.0156 31.4062 26.5234C31.5722 27.3461 31.2466 27.6195 30.4297 27.3437C29.974 26.888 29.5182 26.4322 29.0625 25.9765C28.776 25.5736 28.8151 25.2091 29.1797 24.8828Z" fill="#FE5E14"/>
</g>
<defs>
<clipPath id="clip0_29_507">
<rect width="40" height="40" fill="white"/>
</clipPath>
</defs>
</svg>
